HIERARCHY
ROOT pelvis
{
  OFFSET 0 100 0
  CHANNELS 6 Xposition Yposition Zposition Zrotation Xrotation Yrotation
  JOINT pelvis_right_femur
  {
    OFFSET -10.78128 -3.44521 -0.5502486
    CHANNELS 3 Zrotation Xrotation Yrotation
    JOINT right_femur_tibia
    {
      OFFSET -0.8047443 -44.0398 -0.1307829
      CHANNELS 3 Zrotation Xrotation Yrotation
      JOINT right_tibia_foot
      {
        OFFSET 3.006224 -47.83518 -5
        CHANNELS 3 Zrotation Xrotation Yrotation
        End Site
        {
          OFFSET 0 -5 15
        }
      }
    }
  }
  JOINT pelvis_left_femur
  {
    OFFSET 10.78128 -3.44521 -0.5502486
    CHANNELS 3 Zrotation Xrotation Yrotation
    JOINT left_femur_tibia
    {
      OFFSET 0.8047443 -44.0398 -0.1307829
      CHANNELS 3 Zrotation Xrotation Yrotation
      JOINT left_tibia_foot
      {
        OFFSET -4.370144 -48.10324 -4.275266
        CHANNELS 3 Zrotation Xrotation Yrotation
        End Site
        {
          OFFSET 0 -5 15
        }
      }
    }
  }
  JOINT pelvis_spine1
  {
    OFFSET 0 6.468898 -3.129235
    CHANNELS 3 Zrotation Xrotation Yrotation
    JOINT spine1
    {
      OFFSET 0 23.15396 4.99043
      CHANNELS 3 Zrotation Xrotation Yrotation
      JOINT spine2
      {
        OFFSET 0 20.79997 -5.064912
        CHANNELS 3 Zrotation Xrotation Yrotation
        JOINT neck
        {
          OFFSET 0 14.38658 9.616178
          CHANNELS 3 Zrotation Xrotation Yrotation
          End Site
          {
            OFFSET 0 20 0
          }
        }
      }
      JOINT right_manubrium
      {
        OFFSET -5.722621 16.35077 3.967754
        CHANNELS 3 Zrotation Xrotation Yrotation
        JOINT right_clavicle
        {
          OFFSET -13.16364 1.694482 -4.693211
          CHANNELS 3 Zrotation Xrotation Yrotation
          JOINT right_humerus
          {
            OFFSET -28.5034 -0.3100689 -2.792744
            CHANNELS 3 Zrotation Xrotation Yrotation
            JOINT right_radius
            {
              OFFSET -25.15693 0.02248979 -1.271978
              CHANNELS 3 Zrotation Xrotation Yrotation
              End Site
              {
                OFFSET -15 0 0
              }
            }
          }
        }
      }
      JOINT left_manubrium
      {
        OFFSET 5.722621 16.35077 3.967754
        CHANNELS 3 Zrotation Xrotation Yrotation
        JOINT left_clavicle
        {
          OFFSET 13.16364 1.694482 -4.693211
          CHANNELS 3 Zrotation Xrotation Yrotation
          JOINT left_humerus
          {
            OFFSET 29.39168 -1.063119 -2.237045
            CHANNELS 3 Zrotation Xrotation Yrotation
            JOINT left_radius
            {
              OFFSET 24.59957 -0.9528479 0.9047498
              CHANNELS 3 Zrotation Xrotation Yrotation
              End Site
              {
                OFFSET 15 -0 -0
              }
            }
          }
        }
      }
    }
  }
}
MOTION
Frames: 11
Frame Time: 0.0416666666667
0 103.5113 0 0.3289601 -2.101522 0.05855723 5.861805 -13.31833 8.730698 -0 39.47474 -0 -7.028717 -19.2891 -4.54563 -5.597208 9.102606 -21.18625 -0 7.53722 -0 14.31518 -10.93447 25.19782 -1.976978 -2.221548 4.689749 2.77877 9.264951 -7.6958 1.235821 20.5268 6.809015 4.140437 -25.02348 8.460655 5.750554 -18.67895 11.36518 85.21844 35.01146 -18.52154 -0 0 15.82555 -8.294812 8.712034 3.976342 7.24007 -21.30879 -1.301612 -93.0084 21.32261 20.69071 0 0 -14.88785 11.79212 15.54014 -1.045561
0.4225778 104.0895 1.331994 0.1218372 -0.8209646 0.2001389 6.653955 -15.81873 9.453639 -0 39.5361 -0 -6.356116 -19.20698 -4.336458 -5.785687 9.047631 -21.37732 -0 8.071266 -0 14.33991 -11.89886 24.79264 -1.900671 -2.249924 4.368157 3.048339 9.231209 -7.997817 1.261555 20.28549 7.089751 4.166254 -25.84646 8.908704 5.819283 -18.22748 11.35195 85.81875 35.13187 -19.54075 -0 0 14.64691 -8.363244 9.274483 4.130418 7.468444 -21.48974 -1.036774 -92.56777 20.98351 19.63768 0 0 -15.7063 12.56828 15.40379 -1.874542
0.769797 104.2598 3.150832 0.3985146 -1.27611 0.2718317 5.715029 -17.89514 7.587223 -0 35.12134 -0 -6.385645 -15.01347 -3.550488 -6.104134 10.92792 -20.77721 -0 8.417116 -0 11.77023 -14.86448 24.70825 -1.922491 -2.116357 4.44523 2.951856 9.317148 -7.937714 1.204878 20.33741 7.001629 4.154385 -25.47287 8.605925 5.765678 -18.3124 11.38185 85.66216 34.88623 -19.2478 -0 0 14.80536 -8.77612 9.159913 4.475856 7.277817 -21.41367 -1.215346 -92.44166 21.23706 19.75983 0 0 -15.81926 11.67945 15.04418 -0.7601241
1.085668 104.2811 5.260006 0.3634115 -0.8141173 0.353531 5.633278 -20.45388 6.678351 -0 31.97797 -0 -6.30877 -12.42356 -2.976477 -6.250986 11.69508 -20.17964 -0 8.840856 -0 10.29727 -16.86346 24.00896 -1.909498 -2.076108 4.370028 3.004496 9.313017 -8.007472 1.198486 20.29506 7.041831 4.142499 -25.59049 8.63275 5.772319 -18.20451 11.38255 85.7753 34.83343 -19.4511 -0 0 14.51311 -8.889786 9.271556 4.652445 7.251827 -21.41002 -1.192189 -92.29775 21.38422 19.53049 0 0 -16.1326 11.44221 14.90284 -0.4013106
1.374221 104.1256 7.712077 0.2534192 -0.2945708 0.4701413 5.642158 -23.01819 5.649757 -0 28.45871 -0 -6.406992 -9.774386 -2.395372 -6.291604 12.25464 -19.2921 -0 9.399501 -0 8.953315 -18.54793 22.96428 -1.898751 -2.053603 4.297411 3.059346 9.281211 -8.067715 1.202543 20.26794 7.072794 4.123234 -25.72152 8.680632 5.787727 -18.10898 11.37574 85.8702 34.81787 -19.6398 -0 0 14.2697 -8.899088 9.355624 4.768616 7.225485 -21.38783 -1.152412 -92.22509 21.61468 19.37753 0 0 -16.38958 11.20198 14.84857 -0.03628815
1.64481 103.8409 10.53672 0.03535923 0.4172628 0.6444901 5.858212 -25.58586 4.727206 -0 24.92477 -0 -6.601461 -7.31547 -1.83401 -6.228654 12.56884 -18.23845 -0 10.2345 -0 7.804831 -19.80237 21.59208 -1.880811 -2.033352 4.198589 3.136113 9.252842 -8.155511 1.207321 20.21808 7.125892 4.106327 -25.91489 8.760911 5.807091 -17.97748 11.3695 86.02023 34.80506 -19.91736 -0 0 13.92749 -8.925859 9.492005 4.901026 7.218289 -21.38746 -1.095688 -92.1056 21.7992 19.12898 0 0 -16.7204 11.03197 14.77361 0.2509871
1.902572 103.4638 13.79236 -0.2730684 1.193891 0.8877955 6.183591 -27.93835 3.813523 -0 21.38338 -0 -6.98993 -4.880861 -1.265267 -6.057214 12.72331 -17.02225 -0 11.52873 -0 6.699377 -20.57933 19.91114 -1.85956 -2.006663 4.091531 3.218016 9.237863 -8.256063 1.207936 20.15567 7.186417 4.091315 -26.11544 8.838575 5.823587 -17.83247 11.36692 86.19465 34.77407 -20.22749 -0 0 13.54042 -9.001082 9.656791 5.064338 7.213382 -21.40151 -1.043868 -91.94236 21.94453 18.82472 0 0 -17.0997 10.86902 14.65539 0.5324035
2.151469 103.0525 17.54059 -0.6726031 1.984431 1.202089 6.590642 -29.89177 2.945278 -0 18.04596 -0 -7.621632 -2.501229 -0.6921479 -5.77011 12.7359 -15.71384 -0 13.49795 -0 5.522262 -20.78911 17.94034 -1.836643 -1.967519 3.985362 3.296069 9.246716 -8.363715 1.200367 20.08286 7.248572 4.079355 -26.29209 8.893287 5.8322 -17.68331 11.3708 86.38189 34.70944 -20.54513 -0 0 13.12899 -9.156635 9.842901 5.271353 7.204825 -21.43199 -1.010912 -91.72388 22.02993 18.46933 0 0 -17.52204 10.69574 14.46911 0.824388
2.393023 102.6821 21.83528 -1.143385 2.670476 1.573119 7.034936 -31.16912 2.158231 -0 15.18328 -0 -8.530447 -0.2647999 -0.1445338 -5.364554 12.61839 -14.38929 -0 16.4064 -0 4.198805 -20.30674 15.76137 -1.81477 -1.912711 3.890639 3.36037 9.283114 -8.468908 1.1827 20.007 7.303984 4.070194 -26.41324 8.907551 5.829568 -17.5426 11.38203 86.56358 34.60447 -20.83731 -0 0 12.72728 -9.402002 10.03342 5.521823 7.185572 -21.47511 -1.008069 -91.45616 22.05664 18.08744 0 0 -17.96661 10.48913 14.2094 1.150535
2.625523 102.4489 26.70216 -1.63968 3.09617 1.963014 7.477157 -31.45815 1.519949 -0 13.11969 -0 -9.683441 1.65167 0.3100831 -4.854688 12.35656 -13.14171 -0 20.53833 -0 2.723503 -19.02091 13.54801 -1.797048 -1.83977 3.818769 3.400008 9.348788 -8.5598 1.153679 19.93753 7.344053 4.063921 -26.44666 8.865298 5.812604 -17.42408 11.40083 86.71858 34.45634 -21.06657 -0 0 12.3745 -9.740921 10.2079 5.810462 7.149202 -21.52526 -1.045665 -91.15119 22.02838 17.71013 0 0 -18.4039 10.23043 13.87752 1.528398
2.842284 102.4637 32.11445 -2.076152 3.059185 2.303612 7.867002 -30.44577 1.086167 -0 12.12571 -0 -10.96481 3.041864 0.5763919 -4.282908 11.88717 -12.04725 -0 26.12681 -0 1.190701 -16.90051 11.58463 -1.78695 -1.746787 3.782428 3.402765 9.442902 -8.621451 1.112922 19.88638 7.359784 4.060921 -26.35983 8.752176 5.778465 -17.34342 11.42667 86.82144 34.2658 -21.18854 -0 0 12.11675 -10.17145 10.3425 6.128124 7.088972 -21.5732 -1.132665 -90.82884 21.95532 17.37819 0 0 -18.79379 9.900806 13.48187 1.975337
